<svg xmlns="http://www.w3.org/2000/svg" viewBox="0 0 512 512">
  <defs><linearGradient id="g" x1="0" y1="0" x2="1" y2="1"><stop offset="0" stop-color="#9775fa"/><stop offset="1" stop-color="#6741d9"/></linearGradient></defs>
  <rect width="512" height="512" rx="110" fill="url(#g)"/>
  <path d="M210 138c-48 10-80 52-80 102 0 34 16 64 42 84-4 14-14 28-28 38h82v-38h60v38h82c-14-10-24-24-28-38 26-20 42-50 42-84 0-50-32-92-80-102-16-30-48-48-86-48s-70 18-86 48z" fill="#fff" opacity="0.92"/>
  <circle cx="226" cy="234" r="9" fill="#6741d9"/><circle cx="286" cy="234" r="9" fill="#6741d9"/>
  <path d="M230 276h52" stroke="#6741d9" stroke-width="10" stroke-linecap="round"/>
  <text x="256" y="438" font-family="Arial, sans-serif" font-size="58" font-weight="700" text-anchor="middle" fill="#ffffff">BS</text>
</svg>
